<svg width="55" height="29" viewBox="0 0 55 29" fill="none" xmlns="http://www.w3.org/2000/svg">
<path d="M0.812864 0.108858H4.84923L14.3401 23.2907H14.6674L24.1583 0.108858H28.1947V28.0361H25.031V6.81795H24.7583L16.031 28.0361H12.9765L4.24923 6.81795H3.9765V28.0361H0.812864V0.108858Z" fill="#090909"/>
<path d="M34.9754 28.0361V0.108858H44.739C46.6845 0.108858 48.289 0.445222 49.5526 1.11795C50.8163 1.78159 51.7572 2.67704 52.3754 3.80431C52.9936 4.92249 53.3026 6.1634 53.3026 7.52704C53.3026 8.72704 53.089 9.71795 52.6617 10.4998C52.2436 11.2816 51.689 11.8998 50.9981 12.3543C50.3163 12.8089 49.5754 13.1452 48.7754 13.3634V13.6361C49.6299 13.6907 50.489 13.9907 51.3526 14.5361C52.2163 15.0816 52.939 15.8634 53.5208 16.8816C54.1026 17.8998 54.3936 19.1452 54.3936 20.618C54.3936 22.018 54.0754 23.277 53.439 24.3952C52.8026 25.5134 51.7981 26.3998 50.4254 27.0543C49.0526 27.7089 47.2663 28.0361 45.0663 28.0361H34.9754ZM38.3572 25.0361H45.0663C47.2754 25.0361 48.8436 24.6089 49.7708 23.7543C50.7072 22.8907 51.1754 21.8452 51.1754 20.618C51.1754 19.6725 50.9345 18.7998 50.4526 17.9998C49.9708 17.1907 49.2845 16.5452 48.3936 16.0634C47.5026 15.5725 46.4481 15.327 45.2299 15.327H38.3572V25.0361ZM38.3572 12.3816H44.6299C45.6481 12.3816 46.5663 12.1816 47.3845 11.7816C48.2117 11.3816 48.8663 10.8179 49.3481 10.0907C49.839 9.3634 50.0845 8.50886 50.0845 7.52704C50.0845 6.29977 49.6572 5.25886 48.8026 4.40431C47.9481 3.54068 46.5936 3.10886 44.739 3.10886H38.3572V12.3816Z" fill="#008000"/>
</svg>
